# xmcd
#
# Track frame offsets:
#	150
#	14491
#	29524
#	39832
#	53080
#	65678
#	76689
#	87835
#	102108
#	113228
#	128058
#	140916
#
# Disc length: 2037 seconds
#
# Revision: 0
# Processed by: cddbd v1.5.1PL0 Copyright (c) Steve Scherf et al.
# Submitted via: dBpowerAMP V4.0
#
DISCID=9907f30c
DTITLE=Os atuais - Os atuais
DYEAR=1900
DGENRE=Blues
TTITLE0=dia de festa
TTITLE1=garita do baile
TTITLE2=morena de 15 anos
TTITLE3=alice
TTITLE4=beija flor
TTITLE5=senhorita
TTITLE6=o solitario
TTITLE7=de segunda a domingo
TTITLE8=baile do niquinho
TTITLE9=linda demais pra esquecer
TTITLE10=barco do amor
TTITLE11=palomita blanca
EXTD=
EXTT0=
EXTT1=
EXTT2=
EXTT3=
EXTT4=
EXTT5=
EXTT6=
EXTT7=
EXTT8=
EXTT9=
EXTT10=
EXTT11=
PLAYORDER=
